<svg width="292" height="365" viewBox="0 0 292 365" fill="none" xmlns="http://www.w3.org/2000/svg">
<path d="M146 215.884C206 175.884 221 115.884 221 45.8838L146 5.88379L71 45.8838C71 115.884 86 175.884 146 215.884Z" fill="url(#paint0_linear_47_4)" stroke="#10B981" stroke-width="3" stroke-linejoin="round"/>
<path opacity="0.4" d="M146 215.884C191 180.884 206 130.884 206 65.8838L146 30.8838V215.884Z" fill="#0F172A"/>
<path d="M96 95.8838L146 130.884L196 95.8838V145.884C196 165.884 176 190.884 146 200.884C116 190.884 96 165.884 96 145.884V95.8838Z" fill="url(#paint1_linear_47_4)" stroke="#10B981" stroke-width="2"/>
<path opacity="0.8" d="M106 110.884L146 140.884L186 110.884V150.884C186 165.884 171 180.884 146 188.884C121 180.884 106 165.884 106 150.884V110.884Z" fill="url(#paint2_linear_47_4)"/>
<path d="M145.318 162.429V136.975H146.948V162.429H145.318ZM149.643 145.377C149.563 144.575 149.222 143.951 148.619 143.507C148.016 143.063 147.197 142.841 146.163 142.841C145.46 142.841 144.867 142.941 144.383 143.139C143.899 143.332 143.528 143.6 143.269 143.945C143.017 144.29 142.892 144.681 142.892 145.118C142.878 145.483 142.954 145.801 143.12 146.073C143.293 146.344 143.528 146.58 143.826 146.779C144.124 146.971 144.469 147.14 144.86 147.286C145.251 147.425 145.669 147.544 146.113 147.644L147.943 148.081C148.831 148.28 149.646 148.545 150.389 148.877C151.131 149.208 151.774 149.616 152.318 150.1C152.861 150.584 153.282 151.154 153.58 151.81C153.885 152.466 154.041 153.219 154.048 154.067C154.041 155.313 153.723 156.394 153.093 157.309C152.47 158.217 151.569 158.923 150.389 159.426C149.215 159.924 147.8 160.172 146.143 160.172C144.499 160.172 143.067 159.92 141.847 159.416C140.634 158.913 139.686 158.167 139.004 157.179C138.328 156.185 137.973 154.955 137.94 153.49H142.106C142.152 154.173 142.348 154.743 142.693 155.201C143.044 155.651 143.511 155.993 144.095 156.225C144.685 156.45 145.351 156.563 146.093 156.563C146.822 156.563 147.455 156.457 147.992 156.245C148.536 156.032 148.957 155.737 149.255 155.36C149.553 154.982 149.703 154.548 149.703 154.057C149.703 153.6 149.567 153.215 149.295 152.904C149.03 152.592 148.639 152.327 148.122 152.108C147.611 151.889 146.985 151.691 146.242 151.512L144.025 150.955C142.308 150.537 140.953 149.884 139.958 148.996C138.964 148.108 138.47 146.911 138.477 145.407C138.47 144.174 138.798 143.096 139.461 142.175C140.131 141.254 141.049 140.534 142.215 140.017C143.382 139.5 144.708 139.242 146.193 139.242C147.704 139.242 149.023 139.5 150.15 140.017C151.284 140.534 152.165 141.254 152.795 142.175C153.425 143.096 153.749 144.164 153.769 145.377H149.643Z" fill="white"/>
<path d="M146 0.883789L216 40.8838L146 80.8838L76 40.8838L146 0.883789Z" fill="url(#paint3_linear_47_4)"/>
<path opacity="0.2" d="M146 0.883789L216 40.8838L146 45.8838L76 40.8838L146 0.883789Z" fill="white"/>
<path opacity="0.3" d="M76 40.8838L146 80.8838V45.8838L76 40.8838Z" fill="#059669"/>
<path d="M145.22 52.7929V23.702H147.084V52.7929H145.22ZM150.163 33.3042C150.072 32.3876 149.682 31.6755 148.993 31.1679C148.304 30.6603 147.368 30.4065 146.186 30.4065C145.383 30.4065 144.705 30.5202 144.152 30.7474C143.599 30.9671 143.175 31.2739 142.879 31.6679C142.591 32.0618 142.447 32.5088 142.447 33.0088C142.432 33.4255 142.519 33.7891 142.709 34.0997C142.906 34.4103 143.175 34.6792 143.516 34.9065C143.857 35.1262 144.25 35.3194 144.697 35.4861C145.144 35.6452 145.622 35.7815 146.129 35.8952L148.22 36.3952C149.235 36.6224 150.167 36.9255 151.016 37.3042C151.864 37.683 152.599 38.1489 153.22 38.702C153.841 39.255 154.322 39.9065 154.663 40.6565C155.012 41.4065 155.19 42.2664 155.197 43.2361C155.19 44.6603 154.826 45.8952 154.107 46.9406C153.394 47.9785 152.364 48.7853 151.016 49.3611C149.675 49.9292 148.057 50.2133 146.163 50.2133C144.285 50.2133 142.648 49.9255 141.254 49.3497C139.868 48.7739 138.785 47.9217 138.004 46.7929C137.232 45.6565 136.826 44.2512 136.788 42.577H141.55C141.603 43.3573 141.826 44.0088 142.22 44.5315C142.622 45.0467 143.156 45.4368 143.822 45.702C144.497 45.9595 145.258 46.0883 146.107 46.0883C146.94 46.0883 147.663 45.9671 148.277 45.7247C148.898 45.4823 149.379 45.1452 149.72 44.7133C150.061 44.2815 150.232 43.7853 150.232 43.2247C150.232 42.702 150.076 42.2626 149.766 41.9065C149.463 41.5505 149.016 41.2474 148.425 40.9974C147.841 40.7474 147.125 40.5202 146.277 40.3156L143.743 39.6792C141.781 39.202 140.232 38.4558 139.095 37.4406C137.959 36.4255 137.394 35.058 137.402 33.3383C137.394 31.9292 137.769 30.6982 138.527 29.6452C139.292 28.5921 140.341 27.7702 141.675 27.1792C143.008 26.5883 144.523 26.2929 146.22 26.2929C147.947 26.2929 149.455 26.5883 150.743 27.1792C152.038 27.7702 153.046 28.5921 153.766 29.6452C154.485 30.6982 154.857 31.9179 154.879 33.3042H150.163Z" fill="#0F172A"/>
<path d="M91 80.8838L131 55.8838L166 75.8838L231 10.8838L211 5.88379L246 0.883789L241 35.8838L231 23.8838L168 88.8838L131 67.8838L96 90.8838L91 80.8838Z" fill="url(#paint4_linear_47_4)" stroke="#0F172A" stroke-width="1.5"/>
<path opacity="0.4" d="M91 80.8838L131 55.8838L166 75.8838L231 10.8838" stroke="white" stroke-width="2"/>
<path d="M4.57381 318.884V282.484H32.0818V289.244H12.9458V312.124H32.7578V318.884H4.57381ZM12.3218 303.7V297.148H29.8458V303.7H12.3218ZM39.4605 318.884V282.484H46.4285L67.9045 308.692H64.5245V282.484H72.8445V318.884H65.9285L44.4005 292.676H47.7805V318.884H39.4605ZM91.6149 318.884L75.9109 282.484H85.0109L98.7389 314.724H93.3829L107.319 282.484H115.691L99.9349 318.884H91.6149ZM118.73 318.884V282.484H146.238V289.244H127.102V312.124H146.914V318.884H118.73ZM126.478 303.7V297.148H144.002V303.7H126.478ZM153.617 318.884V282.484H162.041V312.02H180.293V318.884H153.617ZM200.765 319.508C195.6 319.508 191.561 318.069 188.649 315.192C185.737 312.314 184.281 308.206 184.281 302.868V282.484H192.705V302.556C192.705 306.022 193.416 308.518 194.837 310.044C196.259 311.569 198.252 312.332 200.817 312.332C203.383 312.332 205.376 311.569 206.797 310.044C208.219 308.518 208.929 306.022 208.929 302.556V282.484H217.249V302.868C217.249 308.206 215.793 312.314 212.881 315.192C209.969 318.069 205.931 319.508 200.765 319.508ZM220.906 318.884L236.558 297.304V303.44L221.582 282.484H231.15L241.498 297.096L237.494 297.148L247.686 282.484H256.838L241.966 303.076V297.044L257.722 318.884H247.998L237.286 303.44H241.134L230.578 318.884H220.906ZM261.171 318.884V282.484H288.679V289.244H269.543V312.124H289.355V318.884H261.171ZM268.919 303.7V297.148H286.443V303.7H268.919Z" fill="#0F172A"/>
<path d="M35.8592 359.884V346.584H45.9102V349.054H38.9372V359.884H35.8592ZM38.7092 355.039V352.569H45.0932V355.039H38.7092ZM47.994 359.884V346.584H51.072V359.884H47.994ZM54.2284 359.884V346.584H56.7744L64.6214 356.16H63.3864V346.584H66.4264V359.884H63.8994L56.0334 350.308H57.2684V359.884H54.2284ZM74.954 359.884V346.584H81.452C83.124 346.584 84.378 346.9 85.214 347.534C86.0626 348.167 86.487 349.003 86.487 350.042C86.487 350.738 86.316 351.346 85.974 351.866C85.632 352.372 85.1633 352.765 84.568 353.044C83.9726 353.322 83.2886 353.462 82.516 353.462L82.877 352.683C83.713 352.683 84.454 352.822 85.1 353.101C85.746 353.367 86.2463 353.766 86.601 354.298C86.9683 354.83 87.152 355.482 87.152 356.255C87.152 357.395 86.7023 358.288 85.803 358.934C84.9036 359.567 83.58 359.884 81.832 359.884H74.954ZM78.013 357.566H81.604C82.402 357.566 83.0036 357.439 83.409 357.186C83.827 356.92 84.036 356.502 84.036 355.932C84.036 355.374 83.827 354.963 83.409 354.697C83.0036 354.418 82.402 354.279 81.604 354.279H77.785V352.037H81.072C81.8193 352.037 82.3893 351.91 82.782 351.657C83.1873 351.391 83.39 350.992 83.39 350.46C83.39 349.94 83.1873 349.554 82.782 349.301C82.3893 349.035 81.8193 348.902 81.072 348.902H78.013V357.566ZM95.3913 360.112C93.5039 360.112 92.0283 359.586 90.9643 358.535C89.9003 357.483 89.3683 355.982 89.3683 354.032V346.584H92.4463V353.918C92.4463 355.184 92.7059 356.096 93.2253 356.654C93.7446 357.211 94.4729 357.49 95.4103 357.49C96.3476 357.49 97.0759 357.211 97.5953 356.654C98.1146 356.096 98.3743 355.184 98.3743 353.918V346.584H101.414V354.032C101.414 355.982 100.882 357.483 99.8183 358.535C98.7543 359.586 97.2786 360.112 95.3913 360.112ZM104.456 359.884V346.584H110.498C111.942 346.584 113.215 346.862 114.317 347.42C115.419 347.964 116.28 348.731 116.901 349.719C117.522 350.707 117.832 351.878 117.832 353.234C117.832 354.576 117.522 355.748 116.901 356.749C116.28 357.737 115.419 358.509 114.317 359.067C113.215 359.611 111.942 359.884 110.498 359.884H104.456ZM107.534 357.357H110.346C111.233 357.357 111.999 357.192 112.645 356.863C113.304 356.521 113.81 356.039 114.165 355.419C114.532 354.798 114.716 354.07 114.716 353.234C114.716 352.385 114.532 351.657 114.165 351.049C113.81 350.428 113.304 349.953 112.645 349.624C111.999 349.282 111.233 349.111 110.346 349.111H107.534V357.357ZM126.575 360.112C125.524 360.112 124.555 359.947 123.668 359.618C122.794 359.276 122.028 358.794 121.369 358.174C120.723 357.553 120.217 356.825 119.849 355.989C119.495 355.153 119.317 354.234 119.317 353.234C119.317 352.233 119.495 351.315 119.849 350.479C120.217 349.643 120.73 348.914 121.388 348.294C122.047 347.673 122.82 347.198 123.706 346.869C124.593 346.527 125.568 346.356 126.632 346.356C127.81 346.356 128.868 346.552 129.805 346.945C130.755 347.337 131.553 347.907 132.199 348.655L130.223 350.479C129.742 349.972 129.216 349.598 128.646 349.358C128.076 349.104 127.456 348.978 126.784 348.978C126.138 348.978 125.549 349.079 125.017 349.282C124.485 349.484 124.023 349.776 123.63 350.156C123.25 350.536 122.953 350.985 122.737 351.505C122.535 352.024 122.433 352.6 122.433 353.234C122.433 353.854 122.535 354.424 122.737 354.944C122.953 355.463 123.25 355.919 123.63 356.312C124.023 356.692 124.479 356.983 124.998 357.186C125.53 357.388 126.113 357.49 126.746 357.49C127.354 357.49 127.943 357.395 128.513 357.205C129.096 357.002 129.66 356.666 130.204 356.198L131.952 358.421C131.23 358.965 130.388 359.383 129.425 359.675C128.475 359.966 127.525 360.112 126.575 360.112ZM131.952 358.421L129.14 358.022V353.025H131.952V358.421ZM134.811 359.884V346.584H144.862V349.054H137.87V357.414H145.109V359.884H134.811ZM137.642 354.336V351.942H144.045V354.336H137.642ZM150.313 359.884V349.092H146.057V346.584H157.647V349.092H153.391V359.884H150.313ZM167.439 359.884V349.092H163.183V346.584H174.773V349.092H170.517V359.884H167.439ZM176.43 359.884V346.584H182.111C183.96 346.584 185.398 347.014 186.424 347.876C187.45 348.724 187.963 349.902 187.963 351.41C187.963 352.398 187.728 353.253 187.26 353.975C186.791 354.684 186.126 355.229 185.265 355.609C184.403 355.989 183.377 356.179 182.187 356.179H178.14L179.508 354.83V359.884H176.43ZM184.885 359.884L181.56 355.058H184.847L188.21 359.884H184.885ZM179.508 355.172L178.14 353.728H182.016C182.966 353.728 183.675 353.525 184.144 353.12C184.612 352.702 184.847 352.132 184.847 351.41C184.847 350.675 184.612 350.105 184.144 349.7C183.675 349.294 182.966 349.092 182.016 349.092H178.14L179.508 347.629V355.172ZM188.653 359.884L194.581 346.584H197.621L203.568 359.884H200.338L195.474 348.142H196.69L191.807 359.884H188.653ZM191.617 357.034L192.434 354.697H199.274L200.11 357.034H191.617ZM211.128 360.112C210.102 360.112 209.145 359.947 208.259 359.618C207.385 359.276 206.625 358.794 205.979 358.174C205.333 357.553 204.826 356.825 204.459 355.989C204.104 355.153 203.927 354.234 203.927 353.234C203.927 352.233 204.104 351.315 204.459 350.479C204.826 349.643 205.333 348.914 205.979 348.294C206.637 347.673 207.404 347.198 208.278 346.869C209.152 346.527 210.108 346.356 211.147 346.356C212.299 346.356 213.338 346.558 214.263 346.964C215.2 347.356 215.985 347.939 216.619 348.712L214.643 350.536C214.187 350.016 213.68 349.63 213.123 349.377C212.565 349.111 211.957 348.978 211.299 348.978C210.678 348.978 210.108 349.079 209.589 349.282C209.069 349.484 208.62 349.776 208.24 350.156C207.86 350.536 207.562 350.985 207.347 351.505C207.144 352.024 207.043 352.6 207.043 353.234C207.043 353.867 207.144 354.443 207.347 354.963C207.562 355.482 207.86 355.932 208.24 356.312C208.62 356.692 209.069 356.983 209.589 357.186C210.108 357.388 210.678 357.49 211.299 357.49C211.957 357.49 212.565 357.363 213.123 357.11C213.68 356.844 214.187 356.445 214.643 355.913L216.619 357.737C215.985 358.509 215.2 359.098 214.263 359.504C213.338 359.909 212.293 360.112 211.128 360.112ZM221.267 356.844L221.096 353.291L227.461 346.584H230.881L225.143 352.759L223.433 354.583L221.267 356.844ZM218.512 359.884V346.584H221.571V359.884H218.512ZM227.613 359.884L222.882 354.089L224.896 351.904L231.204 359.884H227.613ZM232.576 359.884V346.584H242.627V349.054H235.635V357.414H242.874V359.884H232.576ZM235.407 354.336V351.942H241.81V354.336H235.407ZM245.323 359.884V346.584H251.004C252.853 346.584 254.291 347.014 255.317 347.876C256.343 348.724 256.856 349.902 256.856 351.41C256.856 352.398 256.622 353.253 256.153 353.975C255.684 354.684 255.019 355.229 254.158 355.609C253.297 355.989 252.271 356.179 251.08 356.179H247.033L248.401 354.83V359.884H245.323ZM253.778 359.884L250.453 355.058H253.74L257.103 359.884H253.778ZM248.401 355.172L247.033 353.728H250.909C251.859 353.728 252.568 353.525 253.037 353.12C253.506 352.702 253.74 352.132 253.74 351.41C253.74 350.675 253.506 350.105 253.037 349.7C252.568 349.294 251.859 349.092 250.909 349.092H247.033L248.401 347.629V355.172Z" fill="#0F172A"/>
<defs>
<linearGradient id="paint0_linear_47_4" x1="71" y1="5.88379" x2="71" y2="215.884" gradientUnits="userSpaceOnUse">
<stop stop-color="#1E293B"/>
<stop offset="0.5" stop-color="#0F172A"/>
<stop offset="1" stop-color="#0B0F19"/>
</linearGradient>
<linearGradient id="paint1_linear_47_4" x1="96" y1="95.8838" x2="200.875" y2="195.765" gradientUnits="userSpaceOnUse">
<stop stop-color="#1E293B"/>
<stop offset="1" stop-color="#0F172A"/>
</linearGradient>
<linearGradient id="paint2_linear_47_4" x1="106" y1="188.884" x2="183.975" y2="108.909" gradientUnits="userSpaceOnUse">
<stop stop-color="#10B981"/>
<stop offset="0.6" stop-color="#059669"/>
<stop offset="1" stop-color="#34D399"/>
</linearGradient>
<linearGradient id="paint3_linear_47_4" x1="76" y1="80.8838" x2="144.923" y2="-39.7316" gradientUnits="userSpaceOnUse">
<stop stop-color="#10B981"/>
<stop offset="0.6" stop-color="#059669"/>
<stop offset="1" stop-color="#34D399"/>
</linearGradient>
<linearGradient id="paint4_linear_47_4" x1="91" y1="90.8838" x2="169.163" y2="-43.731" gradientUnits="userSpaceOnUse">
<stop stop-color="#10B981"/>
<stop offset="0.6" stop-color="#059669"/>
<stop offset="1" stop-color="#34D399"/>
</linearGradient>
</defs>
</svg>
